<svg xmlns="http://www.w3.org/2000/svg" xmlns:xlink="http://www.w3.org/1999/xlink" id="Layer_1" x="0" y="0" version="1.1" viewBox="0 0 210.2 45" xml:space="preserve" style="enable-background:new 0 0 210.2 45"><style type="text/css">.st0{fill:#2932d2}.st1{fill:url(#SVGID_1_)}.st2{fill:url(#SVGID_2_)}.st3{fill:#241b69}.st4{fill:#220d41}.st5{fill:url(#SVGID_3_)}.st6{fill:url(#SVGID_4_)}.st7{fill:url(#SVGID_5_)}.st8{fill:none}</style><path d="M62.1,37L42,3.3c-1.1-1.8-3.6-1.8-4.7,0l-5.9,9.9c0,0,4.8,11.7,6.9,15.2S48,41.1,48,41.1h11.7	C61.8,41.1,63.1,38.8,62.1,37z" class="st0"/><linearGradient id="SVGID_1_" x1="13.947" x2="18.985" y1="2.835" y2="43.87" gradientTransform="matrix(1 0 0 -1 0 45.276)" gradientUnits="userSpaceOnUse"><stop offset=".002" style="stop-color:#e7244f"/><stop offset=".746" style="stop-color:#fd5557"/></linearGradient><path d="M25.6,3.3c-1.1-1.8-3.6-1.8-4.7,0L0.9,37c-1.1,1.8,0.2,4.1,2.3,4.1h11.7c0,0,7.8-9.8,9.9-13.2	c2.1-3.5,6.7-14.7,6.7-14.7L25.6,3.3z" class="st1"/><path d="M72.2,37.4c-4.7-3.9-7.7-9.7-7.7-16.3c0-11.6,9.4-21,21-21c5.8,0,11.1,2.4,14.9,6.2L72.2,37.4z" class="st0"/><g><linearGradient id="SVGID_2_" x1="86.692" x2="94.728" y1="2.358" y2="40.16" gradientTransform="matrix(1 0 0 -1 0 45.276)" gradientUnits="userSpaceOnUse"><stop offset=".002" style="stop-color:#e7244f"/><stop offset=".621" style="stop-color:#fd5557"/><stop offset=".852" style="stop-color:#fd5557"/></linearGradient><path d="M72.2,37.4c3.6,3,8.3,4.8,13.3,4.8c11.6,0,21-9.4,21-21c0-5.8-2.4-11.1-6.2-14.9L72.2,37.4z" class="st2"/><path d="M72.2,37.4c-4.7-3.9-7.7-9.7-7.7-16.3c0-11.6,9.4-21,21-21c5.8,0,11.1,2.4,14.9,6.2L72.2,37.4z" class="st3"/></g><polygon points="14.9 41.1 48.1 41.1 31.5 13.2" class="st4"/><linearGradient id="SVGID_3_" x1="640.963" x2="686.563" y1="-255.036" y2="-255.036" gradientTransform="matrix(-1 0 0 1 850.8633 276.1361)" gradientUnits="userSpaceOnUse"><stop offset=".002" style="stop-color:#e7244f"/><stop offset=".785" style="stop-color:#fc5457"/><stop offset=".965" style="stop-color:#fd5557"/></linearGradient><path d="M187.1,41.1l22.4-35.9c1.1-1.8-0.2-4.1-2.3-4.1H167c-2.1,0-3.4,2.3-2.3,4.1L187.1,41.1z" class="st5"/><path d="M176.5,24l-8.7,15.4c-0.4,0.7,0.1,1.7,1,1.7h18.4L176.5,24z" class="st0"/><g><linearGradient id="SVGID_4_" x1="146.03" x2="124.909" y1="33.316" y2="52.333" gradientTransform="matrix(1 0 0 -1 0 45.276)" gradientUnits="userSpaceOnUse"><stop offset=".002" style="stop-color:#dd1a40"/><stop offset=".965" style="stop-color:#fd5557"/></linearGradient><path d="M116.9,1.9c0.5-0.5,1.2-0.8,2-0.8h34.2c0.8,0,1.5,0.3,2,0.8C155.3,2.1,136,21,136,21s-0.4-0.2-1.4-1.1 C130.1,15.4,116.7,2.1,116.9,1.9z" class="st6"/><linearGradient id="SVGID_5_" x1="-3.145" x2="35.06" y1="1233.421" y2="1233.421" gradientTransform="matrix(6.123234e-17 1 1 -6.123234e-17 -1087.4707 5.0419)" gradientUnits="userSpaceOnUse"><stop offset=".002" style="stop-color:#e73f4f"/><stop offset=".785" style="stop-color:#fc5457"/><stop offset=".965" style="stop-color:#fd5557"/></linearGradient><path d="M155.1,1.9c0.5,0.5,0.8,1.2,0.8,2v34.2c0,0.8-0.3,1.5-0.8,2C154.8,40.3,136,21,136,21S154.8,1.6,155.1,1.9z" class="st7"/><path d="M155,40.1c-0.5,0.5-1.2,0.8-2,0.8h-34.2c-0.8,0-1.5-0.3-2-0.8C116.6,39.8,136,21,136,21S155.3,39.8,155,40.1z" class="st3"/><path d="M116.9,40.1c-0.5-0.5-0.8-1.2-0.8-2V3.9c0-0.8,0.3-1.5,0.8-2C117.1,1.6,136,21,136,21S117.1,40.3,116.9,40.1z" class="st0"/></g><line x1="100.4" x2="72.2" y1="6.3" y2="37.4" class="st8"/></svg>